PathFileType	4	(X/Y/Z)	C:/Users/beibeiliu/ov580/test_trc\sequence.28_training_dense_left.trc
DataRate	CameraRate	NumFrames	NumMarkers	Units	OrigDataRate	OrigDataStartFrame	OrigNumFrames
120	120	23	19	mm	120	83	110
Frame#	Time	ThumbCMC			ThumbMCP			ThumbIP			ThumbTip			IndexMCP			IndexPIP			IndexTip			MiddleMCP			MiddlePIP			MiddleTip			RingMCP			RingPIP			RingTip			PinkyMCP			PinkyPIP			PinkyTip			BackHand1			BackHand2			BackHand3	
		X0	Y0	Z0	X1	Y1	Z1	X2	Y2	Z2	X3	Y3	Z3	X4	Y4	Z4	X5	Y5	Z5	X6	Y6	Z6	X7	Y7	Z7	X8	Y8	Z8	X9	Y9	Z9	X10	Y10	Z10	X11	Y11	Z11	X12	Y12	Z12	X13	Y13	Z13	X14	Y14	Z14	X15	Y15	Z15	X16	Y16	Z16	X17	Y17	Z17	X18	Y18	Z18	
82	0.683333	-185.17	41.0011	10.4221	-175.672	55.0438	-10.9624	-163.943	58.7248	-35.7256	-153.957	61.8586	-51.8018	-152.736	22.4656	-43.2251	-141.092	38.3762	-57.3115	-128.299	59.3236	-63.4929	-133.527	20.627	-34.6649	-120.44	44.4313	-52.0596	-110.622	69.906	-53.8197	-117.851	24.2937	-23.1283	-109.553	47.0843	-31.9483	-118.781	72.3825	-32.45	-108.934	26.1935	-3.40892	-108.475	50.1537	-13.2702	-127.793	63.6997	-6.3841	-142.113	4.89496	15.5078	-155.287	9.59629	40.8297	-170.58	9.50869	20.0692	
83	0.691667	-190.378	34.927	16.3188	-184.533	42.8987	-14.5512	-174.886	38.6958	-35.6415	-167.969	39.1509	-56.4452	-169.241	0.89973	-36.7508	-156.588	11.3784	-57.178	-147.056	27.7956	-71.9286	-144.614	-0.978956	-34.992	-134.037	13.97	-53.7664	-124.987	35.3065	-65.4756	-131.937	2.68827	-22.3231	-122.936	20.4727	-39.8067	-124.057	46.9453	-46.6779	-117.177	10.1618	-5.7822	-115.67	29.686	-19.9864	-136.731	46.6309	-19.5555	-147.761	-3.08978	22.7057	-156.537	7.6715	47.3625	-178.722	3.05408	25.8001	
84	0.7	-197.796	27.9654	15.6385	-190.764	30.7755	-14.5197	-187.118	25.6223	-37.1092	-179.118	21.3846	-54.0081	-184.378	-15.4129	-27.7475	-170.175	-9.39954	-52.9978	-164.566	0.662513	-70.1613	-164.032	-18.6907	-29.2923	-151.371	-13.4033	-49.2467	-141.637	5.08461	-70.0232	-144.5	-16.0127	-18.1761	-138.045	-1.77976	-41.7352	-135.853	19.4169	-53.5467	-131.745	-8.83794	-7.00919	-126.55	8.30169	-21.9114	-142.049	27.467	-26.3539	-158.607	-13.4367	30.2268	-165.941	5.84966	53.0225	-189.395	-0.58247	32.9322	
85	0.708333	-203.351	27.8739	19.2238	-196.091	22.6481	-10.5708	-192.745	14.8854	-30.8597	-190.102	8.21073	-51.5259	-197.86	-24.206	-22.1444	-189.168	-23.9767	-42.4281	-178.839	-16.7204	-65.1303	-182.487	-31.2534	-20.486	-171.627	-28.5669	-47.5919	-159.946	-18.4759	-66.6689	-159.985	-30.8849	-13.124	-156.214	-22.5408	-37.7909	-146.116	-4.77951	-54.3783	-142.702	-24.9398	-4.24857	-141.157	-12.4596	-21.246	-147.472	14.0377	-28.8488	-170.649	-17.5183	35.9391	-175.758	-1.15296	53.6095	-199.186	0.245589	39.4953	
86	0.716667	-208.409	27.4406	22.9378	-205.983	22.7538	-9.46401	-206.451	16.5637	-30.0815	-204.79	3.74432	-51.8033	-217.791	-24.6709	-15.9829	-213.869	-27.4333	-42.715	-201.37	-23.1462	-65.3311	-201.752	-36.0681	-15.1252	-196.748	-36.753	-41.1126	-181.317	-31.2197	-68.8209	-185.324	-37.3764	-11.618	-176.299	-34.0126	-38.1136	-169.235	-24.456	-53.4596	-168.76	-36.3368	-1.76049	-164.671	-26.1166	-23.6954	-159.432	-6.34883	-32.5857	-186.091	-20.8273	37.8441	-188.215	-6.04754	55.2887	-212.072	-0.532952	41.8877	
87	0.725	-216.45	30.2204	23.1205	-216.43	26.9875	-9.78379	-217.982	15.4663	-28.4275	-220.099	11.4445	-50.5768	-241.312	-19.4643	-16.4693	-237.51	-23.2774	-39.36	-228.576	-20.9112	-63.8576	-230.911	-31.8676	-18.1259	-227.077	-33.8836	-43.0255	-214.947	-32.1884	-65.9055	-210.411	-40.8842	-11.5264	-207.773	-37.8739	-36.6277	-198.612	-29.9128	-57.749	-195.841	-41.9049	-2.44228	-188.668	-37.6939	-26.4307	-182.137	-21.8861	-38.676	-206.707	-25.1761	37.5709	-198.444	-7.79431	57.6448	-224.079	1.16946	43.1281	
88	0.733333	-221.979	29.9552	23.0137	-220.717	27.8108	-6.8221	-227.932	23.0718	-32.3212	-229.788	14.079	-50.7445	-257.837	-6.39084	-13.8353	-256.942	-8.98456	-43.0819	-248.817	-11.2768	-61.7666	-251.101	-25.1856	-20.3247	-248.183	-25.9423	-45.8303	-240.929	-23.7955	-67.3321	-234.618	-36.3188	-11.9752	-233.677	-33.4032	-36.82	-224.919	-29.8801	-57.9734	-223.396	-42.1977	-4.67486	-219.936	-40.6312	-25.6062	-209.367	-33.7582	-43.4668	-226.893	-22.7193	36.6956	-214.488	-13.9952	55.614	-237.671	3.83633	39.6105	
89	0.741667	-217.856	30.555	24.677	-216.821	30.0927	-5.16525	-223.308	27.4037	-28.5932	-224.525	27.5347	-46.6087	-262.721	14.4933	-16.5258	-260.627	12.8696	-43.6008	-254.367	13.5669	-66.6796	-263.897	-4.41686	-22.5104	-261.017	-2.442	-47.9235	-251.575	-6.68834	-70.8946	-254.63	-19.0496	-16.787	-251.153	-20.1526	-40.8012	-242.12	-15.0575	-60.4775	-243.787	-35.2801	-6.07177	-241.273	-31.2926	-29.2577	-232.293	-24.079	-48.8049	-241.972	-18.7346	33.3391	-228.157	-14.6866	54.8397	-243.341	12.6246	40.615	
90	0.75	-205.329	37.4066	27.7817	-205.077	35.2899	-3.29546	-207.954	40.2426	-29.849	-213.165	37.7541	-48.288	-253.432	38.6412	-16.9471	-250.917	38.7292	-41.5005	-240.558	35.3034	-67.178	-258.928	23.506	-21.1482	-256.311	23.3206	-47.2979	-244.603	17.9683	-74.69	-257.654	5.70166	-18.1265	-253.552	4.80095	-44.8162	-242.457	2.986	-68.2008	-255.182	-14.5597	-15.2179	-251.341	-9.3948	-31.7337	-242.44	-7.25195	-50.0591	-247.739	3.10241	29.2452	-236.971	-4.33647	49.0165	-238.489	28.7114	41.221	
91	0.758333	-191.509	41.9888	27.9613	-185.063	42.7363	-2.96208	-186.618	45.4378	-26.3196	-191.224	44.9121	-45.2243	-228.973	64.1838	-24.3646	-226.202	59.9436	-45.5089	-215.68	54.4409	-67.4878	-240.486	51.8198	-24.4876	-234.431	49.629	-55.1245	-225.996	40.2274	-77.6297	-248.413	32.5945	-28.6046	-243.242	28.1279	-48.353	-232.431	23.9141	-68.4944	-251.843	13.8035	-15.5575	-246.605	12.7754	-38.3472	-237.041	11.8179	-58.2659	-245.233	26.2001	24.5042	-237.862	17.2867	45.7374	-226.772	43.2811	35.5831	
92	0.766667	-175.746	41.263	28.6556	-170.034	39.3657	-0.150808	-167.813	46.0195	-26.713	-172.442	46.1372	-45.8425	-200.738	73.8726	-22.2459	-195.46	70.8303	-49.0074	-188.046	60.5374	-66.3472	-217.496	66.2007	-29.7359	-209.929	61.993	-55.7796	-198.089	51.8092	-80.0987	-229.24	51.0464	-30.7094	-221.168	46.7271	-53.9202	-210.897	42.3556	-69.7591	-239.178	36.5211	-22.9124	-230.992	35.207	-41.8863	-218.098	30.9243	-60.956	-233.084	43.043	20.2414	-226.053	33.1396	45.6619	-210.311	51.695	35.8533	
93	0.775	-160.384	41.9468	30.2292	-150.687	39.9563	-0.835824	-147.882	40.7998	-20.9753	-144.007	41.6327	-43.0448	-169.399	79.1773	-22.4028	-164.833	72.8614	-47.7194	-156.724	57.1847	-68.8479	-185.854	73.5465	-34.906	-180.68	67.449	-56.3109	-175.4	51.1507	-78.832	-204.346	60.6457	-35.3425	-197.111	54.8325	-53.091	-184.534	46.1846	-72.6781	-215.276	51.7827	-24.7934	-208.189	46.8587	-44.3444	-197.801	37.743	-62.2012	-209.936	60.1242	18.7836	-208.351	48.0744	41.4356	-188.214	63.3867	34.728	
94	0.783333	-146.857	44.2775	33.3119	-129.661	35.9058	5.00963	-126.321	37.0416	-20.6388	-126.953	34.9134	-37.8812	-145.546	73.1725	-28.8809	-145.332	63.8393	-50.7528	-138.216	47.2194	-66.7013	-162.991	70.4886	-37.3129	-157.374	60.1207	-59.9255	-156.707	41.0979	-80.9583	-183.495	60.9891	-35.4324	-176.366	53.09	-53.4599	-170.824	39.8212	-74.9038	-197.265	53.7281	-26.0419	-197.12	46.3598	-42.7987	-186.981	39.2026	-63.3029	-189.853	64.0279	16.7949	-193.786	58.6094	40.9221	-170.685	67.6855	31.3125	
95	0.791667	-134.637	44.8607	33.7584	-118.495	31.7944	11.5685	-115.749	30.5335	-14.5229	-108.96	22.3091	-31.3788	-134.767	60.4499	-34.6816	-134.025	46.7433	-55.17	-130.657	25.4681	-70.0142	-156.606	57.6519	-40.8976	-150.714	47.3887	-58.9261	-150.837	25.2049	-79.8009	-176.125	50.4933	-36.632	-172.007	40.896	-52.8994	-167.232	27.6167	-70.4847	-194.101	46.4037	-22.7623	-190.273	36.3344	-45.9104	-183.376	30.1475	-61.8558	-180.752	65.3169	11.1502	-179.851	60.7965	38.9145	-152.535	70.1684	27.1613	
96	0.8	-127.414	41.4259	33.7338	-113.816	27.934	13.1117	-102.598	19.6094	-9.89833	-100.149	12.1257	-25.7945	-129.762	44.0604	-33.035	-124.801	28.9461	-53.8469	-125.459	7.8176	-69.2441	-153.635	42.4468	-37.4068	-151.927	28.3337	-60.6276	-150.604	11.5309	-77.88	-170.098	38.4715	-35.0589	-169.476	25.9134	-54.058	-168.611	11.5991	-69.1944	-188.952	34.7818	-23.4578	-189.581	24.4406	-40.3271	-191.784	15.7028	-55.9551	-175.141	56.8696	10.2209	-176.452	61.6487	34.9246	-145.878	62.2253	25.9778	
97	0.808333	-128.179	37.713	35.7298	-111.539	22.809	18.3339	-104.341	14.0024	-0.589043	-94.444	3.82349	-20.8909	-130.326	34.2433	-30.1751	-126.497	15.4654	-53.006	-124.389	-4.47613	-67.1614	-157.34	29.7096	-36.4314	-153.03	14.8627	-59.8723	-151.444	-2.15695	-77.3279	-173.209	26.0775	-31.7139	-176.252	12.6123	-49.5206	-174.452	-1.55174	-66.2451	-191.33	22.9811	-18.2714	-192.64	12.4524	-36.2264	-196.976	3.1001	-52.301	-172.549	49.66	10.5641	-176.635	54.1631	38.8613	-149.523	55.7697	20.7773	
98	0.816667	-128.564	34.9496	37.9662	-111.268	17.9314	22.2567	-104.455	7.52125	-1.09778	-100.772	-2.60095	-15.6652	-138.143	25.4733	-28.6402	-132.384	7.6027	-50.2007	-129.082	-9.85519	-63.5135	-160.91	20.715	-34.5239	-157.341	8.262	-54.0212	-156.565	-14.4131	-75.2643	-179.436	15.6293	-28.0466	-181.195	2.74697	-44.5961	-176.952	-11.198	-60.9648	-194.674	11.9095	-13.5738	-196.079	0.811118	-31.0366	-201.174	-10.0076	-48.3186	-178.908	39.4728	12.3868	-181.984	47.029	40.2834	-152.328	49.8376	26.3936	
99	0.825	-136.581	29.8066	35.4813	-118.443	13.1968	19.7606	-109.701	2.04867	3.14181	-105.897	-10.3747	-12.1829	-143.565	19.7601	-29.6371	-138.737	6.39971	-46.8338	-133.436	-15.5181	-61.3098	-166.543	16.1585	-31.7608	-161.516	0.0342079	-54.8359	-158.585	-22.0718	-72.5023	-184.827	8.61205	-27.0531	-181.355	-3.51632	-44.3975	-176.664	-19.1383	-59.6301	-197.029	6.95782	-9.37538	-200.03	-5.17059	-26.3256	-200.397	-17.0568	-41.9646	-186.65	34.8251	15.9339	-185.576	42.0023	39.1501	-161.685	47.5225	27.2046	
100	0.833333	-139.37	29.8799	40.5789	-119.098	12.2357	20.3307	-113.4	0.459743	3.76577	-107.965	-12.8349	-12.4173	-144.707	19.9882	-27.6069	-141.196	4.51772	-45.4223	-136.243	-19.4099	-60.2838	-168.287	12.8663	-35.8305	-164.355	-1.00714	-53.5176	-157.478	-24.7266	-69.8237	-184.869	9.05392	-24.2236	-181.684	-5.23259	-43.0357	-178.225	-24.3234	-59.5016	-202.64	2.34688	-9.98854	-200.033	-7.49512	-26.8091	-200.763	-20.6335	-42.2112	-188.693	32.7694	15.0063	-186.578	41.7654	42.5942	-161.241	44.9858	25.7156	
101	0.841667	-136.944	31.9968	32.9765	-123.288	14.2462	19.5285	-117.012	1.98899	0.520381	-110.617	-11.1048	-15.1917	-143.833	21.3202	-30.3656	-138.87	5.7468	-46.7207	-135.752	-20.5958	-60.9604	-166.972	15.7557	-33.5799	-164.114	-3.91997	-56.4903	-160.952	-24.8378	-68.7516	-183.833	9.85912	-27.7072	-183.046	-8.08397	-47.4125	-177.504	-23.5368	-59.731	-201.36	3.61122	-12.1761	-198.038	-6.4679	-27.6893	-199.506	-23.1281	-44.0361	-187.894	35.3229	13.4122	-188.7	40.9612	36.0584	-161.347	48.3938	19.616	
102	0.85	-134.918	33.7008	31.9596	-118.692	16.1159	14.757	-114.024	3.63155	-1.19024	-109.282	-10.0697	-17.9384	-140.194	21.9148	-34.54	-135.73	5.11348	-49.7426	-133.737	-16.5769	-59.416	-166.964	15.6343	-37.8853	-158.692	0.667963	-57.6706	-156.943	-23.4819	-70.7237	-184.443	9.55722	-28.1214	-178.693	-5.63619	-48.8448	-176.136	-23.0766	-61.8397	-196.962	5.4127	-12.9902	-195.15	-7.97628	-31.981	-197.602	-23.9096	-45.3683	-187.406	34.6941	10.9695	-184.217	43.3089	34.0736	-163.019	48.3142	18.5971	
103	0.858333	-137.484	32.5308	32.3478	-119.884	17.7208	16.6474	-110.049	5.21895	-1.33433	-106.123	-7.64979	-19.3086	-141.842	22.7018	-33.6985	-135.888	4.53334	-50.7992	-129.242	-18.3241	-60.3676	-164.207	16.9551	-37.8371	-159.687	-0.818743	-59.0136	-154.693	-20.0227	-70.5424	-180.009	11.6608	-30.069	-177.035	-3.0843	-48.8439	-172.804	-22.9825	-63.4331	-196.455	5.45487	-16.2233	-193.628	-7.62044	-33.3397	-194.086	-22.996	-48.5819	-185.222	33.9339	10.2468	-184.23	42.9887	33.4569	-162.186	47.5409	19.0304	
104	0.866667	-136.523	34.5779	34.6503	-119.618	18.5852	14.6567	-108.958	6.49544	-2.57368	-104.415	-6.12185	-22.1959	-139.859	24.1149	-33.7709	-135.405	4.13241	-51.3281	-129.914	-19.0876	-61.2105	-164.841	16.9674	-37.467	-158.928	1.84912	-58.1687	-152.086	-23.3018	-72.7508	-181.163	10.6125	-32.8134	-176.892	-1.00025	-48.1007	-170.285	-20.7158	-63.4844	-194.899	6.6804	-12.9669	-193.543	-6.02335	-32.2029	-195.519	-21.105	-46.5293	-186.684	35.7011	9.84826	-188.074	44.9689	37.6818	-158.567	48.5784	21.7694	
